#!OML:ASF E:\emotionWalksFemale\Project 1\Capture day 1\Session 1\Female1.ASF
:FULLY-SPECIFIED
:DEGREES
749
root 9.0235 15.3766 -36.9205 176.311 1.16739 -178.569
lowerback 5.77513 1.51952 0.773165
upperback -4.40847 2.23295 0.239285
thorax -7.84901 1.10277 -0.466358
lowerneck -3.74549 -4.1958 -9.98292
upperneck 9.3294 -5.97979 8.44732
head 3.93818 -3.02507 3.92301
rclavicle -1.55797e-014 -4.77083e-015
rhumerus -45.2102 20.5195 -100.583
rradius 35.5945
rwrist 14.2377
rhand 5.82627 -53.6078
rfingers 7.12502
rthumb 31.1578 -80.979
lclavicle -1.55797e-014 -4.77083e-015
lhumerus -33.5895 -13.3992 98.0282
lradius 47.5588
lwrist -6.5093
lhand -8.55293 -33.5806
lfingers 7.12502
lthumb 17.3767 -4.33735
rfemur -2.27805 19.3474 26.991
rtibia 25.949
rfoot -17.3904 -27.5379
rtoes -7.75833
lfemur -6.30614 -18.6271 -27.4512
ltibia 31.2838
lfoot -24.0328 19.9219
ltoes -7.90832
750
root 9.03546 15.3736 -36.9366 176.333 1.12695 -178.627
lowerback 5.55035 1.62469 0.787594
upperback -4.23483 2.35566 0.149621
thorax -7.52565 1.15904 -0.571585
lowerneck -3.91498 -4.3168 -9.9337
upperneck 8.9952 -6.09079 8.46323
head 3.87598 -3.06332 3.91092
rclavicle 2.48481e-017 -4.37326e-015
rhumerus -44.9447 21.0477 -100.849
rradius 35.7495
rwrist 14.3205
rhand 4.87807 -53.9765
rfingers 7.12502
rthumb 30.2537 -81.5176
lclavicle 2.48481e-017 -4.37326e-015
lhumerus -34.1335 -14.7329 98.5874
lradius 48.0158
lwrist -5.25386
lhand -8.36807 -33.6539
lfingers 7.12502
lthumb 17.5547 -4.42642
rfemur -2.25081 19.7969 27.0584
rtibia 25.9578
rfoot -18.2407 -27.9291
rtoes -5.73184
lfemur -6.27261 -18.3342 -27.4222
ltibia 31.2544
lfoot -23.6529 19.8771
ltoes -11.4664
751
root 9.04763 15.3667 -36.9499 176.212 1.07666 -178.662
lowerback 5.99338 1.69992 0.762154
upperback -4.35785 2.45845 0.0933662
thorax -7.91335 1.20561 -0.647671
lowerneck -3.89084 -4.4155 -9.88122
upperneck 8.8611 -6.21497 8.44075
head 3.84124 -3.12178 3.88885
rclavicle -2.56681e-014 -7.95139e-016
rhumerus -45.1883 21.4801 -101.268
rradius 35.9841
rwrist 14.1623
rhand 5.38472 -54.1434
rfingers 7.12502
rthumb 30.7369 -81.5947
lclavicle -2.56681e-014 -7.95139e-016
lhumerus -35.2478 -15.7268 99.2362
lradius 48.5657
lwrist -4.19353
lhand -8.07618 -33.7968
lfingers 7.12502
lthumb 17.8355 -4.59472
rfemur -2.00657 20.096 27.2182
rtibia 25.9528
rfoot -18.7922 -28.2159
rtoes -4.75394
lfemur -6.09293 -18.0433 -27.4217
ltibia 31.2406
lfoot -23.2371 19.9887
ltoes -14.5486
752
root 9.05936 15.3601 -36.9562 176.031 0.967438 -178.754
lowerback 6.16899 1.67141 0.582515
upperback -4.21102 2.39072 0.0805882
thorax -7.86522 1.17753 -0.554414
lowerneck -4.03018 -4.45345 -9.86611
upperneck 8.59011 -6.22231 8.44899
head 3.78385 -3.1138 3.88671
rclavicle 2.24875e-014 5.76476e-015
rhumerus -44.9419 22.2455 -101.582
rradius 36.1439
rwrist 13.7945
rhand 4.79423 -53.8945
rfingers 7.12502
rthumb 30.1737 -81.4502
lclavicle 2.24875e-014 5.76476e-015
lhumerus -35.8908 -16.3698 99.6422
lradius 49.0072
lwrist -3.31971
lhand -8.16093 -34.0707
lfingers 7.12502
lthumb 17.754 -4.8612
rfemur -1.68271 20.2408 27.3262
rtibia 25.8796
rfoot -18.8829 -28.5217
rtoes -4.8501
lfemur -5.90501 -17.7958 -27.4898
ltibia 31.258
lfoot -23.1218 19.8143
ltoes -15.2811
753
root 9.07125 15.36 -36.9522 176.124 0.930539 -178.737
lowerback 6.56661 1.66767 0.626183
upperback -4.38242 2.39708 0.0328892
thorax -8.27863 1.17467 -0.648289
lowerneck -3.96377 -4.43483 -9.89717
upperneck 8.40564 -6.18123 8.43912
head 3.71429 -3.09286 3.89344
rclavicle -1.53313e-014 -6.55989e-015
rhumerus -44.91 22.6575 -101.914
rradius 36.1793
rwrist 13.6167
rhand 3.55888 -53.6799
rfingers 7.12502
rthumb 28.9945 -81.4446
lclavicle -1.53313e-014 -6.55989e-015
lhumerus -36.9654 -17.0861 100.148
lradius 49.4451
lwrist -2.1166
lhand -8.43715 -34.5037
lfingers 7.12502
lthumb 17.4882 -5.27033
rfemur -1.74844 20.3517 27.4098
rtibia 25.8126
rfoot -18.7459 -28.7316
rtoes -5.18123
lfemur -6.07535 -17.6331 -27.3267
ltibia 31.2839
lfoot -23.3704 19.3115
ltoes -14.0874
